{
	"patcher" : 	{
		"fileversion" : 1,
		"appversion" : 		{
			"major" : 8,
			"minor" : 1,
			"revision" : 11,
			"architecture" : "x64",
			"modernui" : 1
		}
,
		"classnamespace" : "box",
		"rect" : [ 34.0, 171.0, 745.0, 475.0 ],
		"bglocked" : 0,
		"openinpresentation" : 1,
		"default_fontsize" : 12.0,
		"default_fontface" : 0,
		"default_fontname" : "Arial",
		"gridonopen" : 1,
		"gridsize" : [ 15.0, 15.0 ],
		"gridsnaponopen" : 1,
		"objectsnaponopen" : 1,
		"statusbarvisible" : 2,
		"toolbarvisible" : 1,
		"lefttoolbarpinned" : 0,
		"toptoolbarpinned" : 0,
		"righttoolbarpinned" : 0,
		"bottomtoolbarpinned" : 0,
		"toolbars_unpinned_last_save" : 0,
		"tallnewobj" : 0,
		"boxanimatetime" : 200,
		"enablehscroll" : 1,
		"enablevscroll" : 1,
		"devicewidth" : 0.0,
		"description" : "",
		"digest" : "",
		"tags" : "",
		"style" : "",
		"subpatcher_template" : "",
		"assistshowspatchername" : 0,
		"boxes" : [ 			{
				"box" : 				{
					"fontsize" : 16.0,
					"id" : "obj-9",
					"linecount" : 3,
					"maxclass" : "comment",
					"numinlets" : 1,
					"numoutlets" : 0,
					"patching_rect" : [ 250.0, 145.0, 195.0, 60.0 ],
					"presentation" : 1,
					"presentation_linecount" : 3,
					"presentation_rect" : [ 321.0, 105.0, 92.0, 60.0 ],
					"text" : "Ryan Millett\nCMPM 152\nSpring '21",
					"textjustification" : 1
				}

			}
, 			{
				"box" : 				{
					"fontface" : 1,
					"fontsize" : 24.0,
					"id" : "obj-8",
					"linecount" : 4,
					"maxclass" : "comment",
					"numinlets" : 1,
					"numoutlets" : 0,
					"patching_rect" : [ 118.0, 86.0, 291.0, 114.0 ],
					"presentation" : 1,
					"presentation_rect" : [ 21.0, 49.0, 700.0, 33.0 ],
					"text" : "SONIFICATION STRATEGIES FOR DEEP-SPACE MATERIALS",
					"textjustification" : 1
				}

			}
, 			{
				"box" : 				{
					"id" : "obj-7",
					"maxclass" : "newobj",
					"numinlets" : 1,
					"numoutlets" : 4,
					"outlettype" : [ "", "", "", "" ],
					"patching_rect" : [ 201.0, 477.0, 97.0, 22.0 ],
					"saved_object_attributes" : 					{
						"embed" : 0,
						"precision" : 6
					}
,
					"text" : "coll patch_list.txt"
				}

			}
, 			{
				"box" : 				{
					"id" : "obj-4",
					"maxclass" : "number",
					"numinlets" : 1,
					"numoutlets" : 2,
					"outlettype" : [ "", "bang" ],
					"parameter_enable" : 0,
					"patching_rect" : [ 155.0, 411.0, 50.0, 22.0 ]
				}

			}
, 			{
				"box" : 				{
					"id" : "obj-6",
					"maxclass" : "newobj",
					"numinlets" : 1,
					"numoutlets" : 1,
					"outlettype" : [ "" ],
					"patching_rect" : [ 386.0, 459.748748999999975, 81.0, 22.0 ],
					"text" : "prepend load"
				}

			}
, 			{
				"box" : 				{
					"fontface" : 0,
					"fontname" : "Arial",
					"fontsize" : 12.0,
					"id" : "obj-2",
					"maxclass" : "newobj",
					"numinlets" : 1,
					"numoutlets" : 1,
					"outlettype" : [ "" ],
					"patching_rect" : [ 386.0, 415.497498000000007, 148.0, 22.0 ],
					"text" : "sprintf symout %s.maxpat"
				}

			}
, 			{
				"box" : 				{
					"fontname" : "Arial",
					"fontsize" : 12.0,
					"id" : "obj-3",
					"maxclass" : "newobj",
					"numinlets" : 1,
					"numoutlets" : 1,
					"outlettype" : [ "" ],
					"patching_rect" : [ 386.0, 498.0, 53.0, 22.0 ],
					"text" : "pcontrol"
				}

			}
, 			{
				"box" : 				{
					"button" : 1,
					"fontsize" : 30.0,
					"id" : "obj-1",
					"maxclass" : "tab",
					"numinlets" : 1,
					"numoutlets" : 3,
					"outlettype" : [ "int", "", "" ],
					"parameter_enable" : 0,
					"patching_rect" : [ 155.0, 167.0, 287.0, 187.0 ],
					"presentation" : 1,
					"presentation_rect" : [ 187.5, 205.0, 359.0, 220.0 ],
					"tabs" : [ "Exoplanet Detection", "Pulsar Profiles", "Star Cluster Spatialization" ]
				}

			}
 ],
		"lines" : [ 			{
				"patchline" : 				{
					"destination" : [ "obj-4", 0 ],
					"source" : [ "obj-1", 0 ]
				}

			}
, 			{
				"patchline" : 				{
					"destination" : [ "obj-6", 0 ],
					"source" : [ "obj-2", 0 ]
				}

			}
, 			{
				"patchline" : 				{
					"destination" : [ "obj-7", 0 ],
					"source" : [ "obj-4", 0 ]
				}

			}
, 			{
				"patchline" : 				{
					"destination" : [ "obj-3", 0 ],
					"source" : [ "obj-6", 0 ]
				}

			}
, 			{
				"patchline" : 				{
					"destination" : [ "obj-2", 0 ],
					"source" : [ "obj-7", 0 ]
				}

			}
 ],
		"dependency_cache" : [ 			{
				"name" : "patch_list.txt",
				"bootpath" : "~/GoogleDriveUCSC/CLASSES/CMPM/CMPM152/Assignments/Assignment_04",
				"patcherrelativepath" : ".",
				"type" : "TEXT",
				"implicit" : 1
			}
 ],
		"autosave" : 0
	}

}
